<mxfile host="65bd71144e">
    <diagram id="7OX1mGH7tIx-ZZ-Zn5Tw" name="Page-1">
        <mxGraphModel dx="3451" dy="850" grid="1" gridSize="10" guides="1" tooltips="1" connect="1" arrows="1" fold="1" page="1" pageScale="1" pageWidth="850" pageHeight="1100" math="0" shadow="0">
            <root>
                <mxCell id="0"/>
                <mxCell id="1" parent="0"/>
                <mxCell id="2" value="" style="rounded=0;whiteSpace=wrap;html=1;dashed=1;" parent="1" vertex="1">
                    <mxGeometry x="-880" y="430" width="1510" height="990" as="geometry"/>
                </mxCell>
                <mxCell id="3" value="" style="ellipse;whiteSpace=wrap;html=1;aspect=fixed;strokeColor=#000000;align=left;dashed=1;" parent="1" vertex="1">
                    <mxGeometry x="-592" y="934" width="166" height="166" as="geometry"/>
                </mxCell>
                <mxCell id="4" value="" style="whiteSpace=wrap;html=1;shape=mxgraph.basic.pointed_oval;strokeColor=none;" parent="1" vertex="1">
                    <mxGeometry x="-183" y="1150" width="46" height="88" as="geometry"/>
                </mxCell>
                <mxCell id="5" value="" style="whiteSpace=wrap;html=1;shape=mxgraph.basic.pointed_oval;fillColor=#ffe6cc;strokeColor=#d79b00;" parent="1" vertex="1">
                    <mxGeometry x="-182" y="1150" width="46" height="88" as="geometry"/>
                </mxCell>
                <mxCell id="6" value="" style="endArrow=none;html=1;fontSize=16;" parent="1" edge="1">
                    <mxGeometry width="50" height="50" relative="1" as="geometry">
                        <mxPoint x="-174" y="1209" as="sourcePoint"/>
                        <mxPoint x="-144" y="1179" as="targetPoint"/>
                    </mxGeometry>
                </mxCell>
                <mxCell id="7" value="" style="endArrow=none;html=1;fontSize=16;" parent="1" edge="1">
                    <mxGeometry width="50" height="50" relative="1" as="geometry">
                        <mxPoint x="-172" y="1217.9999999999995" as="sourcePoint"/>
                        <mxPoint x="-142" y="1187.9999999999995" as="targetPoint"/>
                    </mxGeometry>
                </mxCell>
                <mxCell id="8" value="" style="endArrow=none;html=1;fontSize=16;exitX=0.297;exitY=0.84;exitDx=0;exitDy=0;exitPerimeter=0;" parent="1" source="5" edge="1">
                    <mxGeometry width="50" height="50" relative="1" as="geometry">
                        <mxPoint x="-172" y="1228" as="sourcePoint"/>
                        <mxPoint x="-142" y="1197.9999999999995" as="targetPoint"/>
                    </mxGeometry>
                </mxCell>
                <mxCell id="9" value="" style="endArrow=none;html=1;fontSize=16;exitX=0.297;exitY=0.84;exitDx=0;exitDy=0;exitPerimeter=0;entryX=0.834;entryY=0.672;entryDx=0;entryDy=0;entryPerimeter=0;" parent="1" target="5" edge="1">
                    <mxGeometry width="50" height="50" relative="1" as="geometry">
                        <mxPoint x="-165.33799999999974" y="1230.92" as="sourcePoint"/>
                        <mxPoint x="-139" y="1205" as="targetPoint"/>
                    </mxGeometry>
                </mxCell>
                <mxCell id="10" value="" style="endArrow=none;html=1;fontSize=16;exitX=0.297;exitY=0.84;exitDx=0;exitDy=0;exitPerimeter=0;entryX=0.739;entryY=0.814;entryDx=0;entryDy=0;entryPerimeter=0;" parent="1" target="5" edge="1">
                    <mxGeometry width="50" height="50" relative="1" as="geometry">
                        <mxPoint x="-161.8480000000004" y="1235.8900000000003" as="sourcePoint"/>
                        <mxPoint x="-146" y="1221" as="targetPoint"/>
                    </mxGeometry>
                </mxCell>
                <mxCell id="11" value="" style="ellipse;whiteSpace=wrap;html=1;aspect=fixed;fillColor=#f8cecc;strokeColor=#b85450;" parent="1" vertex="1">
                    <mxGeometry x="117" y="950" width="130" height="130" as="geometry"/>
                </mxCell>
                <mxCell id="12" value="" style="whiteSpace=wrap;html=1;shape=mxgraph.basic.pointed_oval;strokeColor=none;" parent="1" vertex="1">
                    <mxGeometry x="110" y="971" width="46" height="88" as="geometry"/>
                </mxCell>
                <mxCell id="13" value="" style="whiteSpace=wrap;html=1;shape=mxgraph.basic.pointed_oval;strokeColor=none;" parent="1" vertex="1">
                    <mxGeometry x="208" y="971" width="46" height="88" as="geometry"/>
                </mxCell>
                <mxCell id="14" value="" style="endArrow=none;html=1;fontSize=16;entryX=0.861;entryY=0.162;entryDx=0;entryDy=0;entryPerimeter=0;exitX=0.136;exitY=0.839;exitDx=0;exitDy=0;exitPerimeter=0;" parent="1" edge="1">
                    <mxGeometry width="50" height="50" relative="1" as="geometry">
                        <mxPoint x="134.67999999999984" y="1059.0700000000002" as="sourcePoint"/>
                        <mxPoint x="228.92999999999984" y="971.06" as="targetPoint"/>
                    </mxGeometry>
                </mxCell>
                <mxCell id="15" value="" style="endArrow=none;html=1;fontSize=16;entryX=0.138;entryY=0.357;entryDx=0;entryDy=0;entryPerimeter=0;exitX=0.214;exitY=0.907;exitDx=0;exitDy=0;exitPerimeter=0;" parent="1" source="11" target="13" edge="1">
                    <mxGeometry width="50" height="50" relative="1" as="geometry">
                        <mxPoint x="144.67999999999995" y="1069.0700000000002" as="sourcePoint"/>
                        <mxPoint x="238.92999999999995" y="981.06" as="targetPoint"/>
                    </mxGeometry>
                </mxCell>
                <mxCell id="16" value="" style="endArrow=none;html=1;fontSize=16;entryX=0.119;entryY=0.562;entryDx=0;entryDy=0;entryPerimeter=0;exitX=0.214;exitY=0.907;exitDx=0;exitDy=0;exitPerimeter=0;" parent="1" target="13" edge="1">
                    <mxGeometry width="50" height="50" relative="1" as="geometry">
                        <mxPoint x="156" y="1074.49" as="sourcePoint"/>
                        <mxPoint x="225.52800000000008" y="1008.9960000000002" as="targetPoint"/>
                    </mxGeometry>
                </mxCell>
                <mxCell id="17" value="" style="endArrow=none;html=1;fontSize=16;exitX=0.214;exitY=0.907;exitDx=0;exitDy=0;exitPerimeter=0;entryX=0.182;entryY=0.717;entryDx=0;entryDy=0;entryPerimeter=0;" parent="1" target="13" edge="1">
                    <mxGeometry width="50" height="50" relative="1" as="geometry">
                        <mxPoint x="170" y="1079" as="sourcePoint"/>
                        <mxPoint x="215" y="1036" as="targetPoint"/>
                    </mxGeometry>
                </mxCell>
                <mxCell id="18" value="" style="endArrow=none;html=1;fontSize=16;exitX=0.214;exitY=0.907;exitDx=0;exitDy=0;exitPerimeter=0;entryX=0.315;entryY=0.866;entryDx=0;entryDy=0;entryPerimeter=0;" parent="1" target="13" edge="1">
                    <mxGeometry width="50" height="50" relative="1" as="geometry">
                        <mxPoint x="188" y="1080.0000000000002" as="sourcePoint"/>
                        <mxPoint x="220" y="1050" as="targetPoint"/>
                    </mxGeometry>
                </mxCell>
                <mxCell id="19" value="" style="ellipse;whiteSpace=wrap;html=1;aspect=fixed;fillColor=#d5e8d4;strokeColor=#82b366;" parent="1" vertex="1">
                    <mxGeometry x="-340" y="240" width="130" height="130" as="geometry"/>
                </mxCell>
                <mxCell id="20" value="" style="ellipse;whiteSpace=wrap;html=1;aspect=fixed;fillColor=#f8cecc;strokeColor=#b85450;" parent="1" vertex="1">
                    <mxGeometry x="-110" y="240" width="130" height="130" as="geometry"/>
                </mxCell>
                <mxCell id="21" value="" style="curved=1;endArrow=classic;html=1;" parent="1" edge="1">
                    <mxGeometry width="50" height="50" relative="1" as="geometry">
                        <mxPoint x="-310" y="250" as="sourcePoint"/>
                        <mxPoint x="-330" y="200" as="targetPoint"/>
                        <Array as="points">
                            <mxPoint x="-330" y="230"/>
                            <mxPoint x="-290" y="210"/>
                        </Array>
                    </mxGeometry>
                </mxCell>
                <mxCell id="22" value="" style="curved=1;endArrow=classic;html=1;" parent="1" edge="1">
                    <mxGeometry width="50" height="50" relative="1" as="geometry">
                        <mxPoint x="10" y="270" as="sourcePoint"/>
                        <mxPoint x="60" y="220" as="targetPoint"/>
                        <Array as="points">
                            <mxPoint x="60" y="270"/>
                            <mxPoint x="10" y="220"/>
                        </Array>
                    </mxGeometry>
                </mxCell>
                <mxCell id="23" value="datasource" style="text;html=1;align=center;verticalAlign=middle;resizable=0;points=[];autosize=1;strokeColor=none;fontStyle=1" parent="1" vertex="1">
                    <mxGeometry x="-410" y="190" width="80" height="20" as="geometry"/>
                </mxCell>
                <mxCell id="24" value="datasink" style="text;html=1;align=center;verticalAlign=middle;resizable=0;points=[];autosize=1;strokeColor=none;fontStyle=1" parent="1" vertex="1">
                    <mxGeometry x="65" y="210" width="60" height="20" as="geometry"/>
                </mxCell>
                <mxCell id="25" value="" style="ellipse;whiteSpace=wrap;html=1;aspect=fixed;fillColor=#d5e8d4;strokeColor=#82b366;" parent="1" vertex="1">
                    <mxGeometry x="-271" y="520" width="130" height="130" as="geometry"/>
                </mxCell>
                <mxCell id="26" value="" style="ellipse;whiteSpace=wrap;html=1;aspect=fixed;fillColor=#f8cecc;strokeColor=#b85450;" parent="1" vertex="1">
                    <mxGeometry x="-175" y="520" width="130" height="130" as="geometry"/>
                </mxCell>
                <mxCell id="27" value="" style="whiteSpace=wrap;html=1;shape=mxgraph.basic.pointed_oval;fillColor=#dae8fc;strokeColor=#6c8ebf;" parent="1" vertex="1">
                    <mxGeometry x="-181" y="541" width="46" height="88" as="geometry"/>
                </mxCell>
                <mxCell id="28" value="" style="curved=1;endArrow=classic;html=1;" parent="1" edge="1">
                    <mxGeometry width="50" height="50" relative="1" as="geometry">
                        <mxPoint x="-251" y="560" as="sourcePoint"/>
                        <mxPoint x="-291" y="510" as="targetPoint"/>
                        <Array as="points">
                            <mxPoint x="-271" y="550"/>
                            <mxPoint x="-251" y="520"/>
                        </Array>
                    </mxGeometry>
                </mxCell>
                <mxCell id="29" value="&lt;b style=&quot;font-size: 16px;&quot;&gt;a = datasource&lt;/b&gt;.&lt;i style=&quot;font-size: 16px;&quot;&gt;subtract&lt;/i&gt;(&lt;b style=&quot;font-size: 16px;&quot;&gt;datasink&lt;/b&gt;)" style="text;html=1;align=center;verticalAlign=middle;resizable=0;points=[];autosize=1;strokeColor=none;fontSize=16;" parent="1" vertex="1">
                    <mxGeometry x="-461" y="480" width="260" height="20" as="geometry"/>
                </mxCell>
                <mxCell id="30" value="" style="curved=1;endArrow=classic;html=1;" parent="1" edge="1">
                    <mxGeometry width="50" height="50" relative="1" as="geometry">
                        <mxPoint x="-61" y="560" as="sourcePoint"/>
                        <mxPoint x="-11" y="510" as="targetPoint"/>
                        <Array as="points">
                            <mxPoint x="-21" y="560"/>
                            <mxPoint x="-41" y="520"/>
                        </Array>
                    </mxGeometry>
                </mxCell>
                <mxCell id="31" value="&lt;b style=&quot;font-size: 16px;&quot;&gt;b = datasink&lt;/b&gt;.&lt;i style=&quot;font-size: 16px;&quot;&gt;substract&lt;/i&gt;(&lt;b style=&quot;font-size: 16px;&quot;&gt;datasource&lt;/b&gt;)" style="text;html=1;align=center;verticalAlign=middle;resizable=0;points=[];autosize=1;strokeColor=none;fontSize=16;" parent="1" vertex="1">
                    <mxGeometry x="-101" y="480" width="270" height="20" as="geometry"/>
                </mxCell>
                <mxCell id="32" value="" style="ellipse;whiteSpace=wrap;html=1;aspect=fixed;fillColor=#d5e8d4;strokeColor=#82b366;" parent="1" vertex="1">
                    <mxGeometry x="-279" y="825" width="130" height="130" as="geometry"/>
                </mxCell>
                <mxCell id="33" value="" style="ellipse;whiteSpace=wrap;html=1;aspect=fixed;fillColor=#f8cecc;strokeColor=#b85450;" parent="1" vertex="1">
                    <mxGeometry x="-183" y="825" width="130" height="130" as="geometry"/>
                </mxCell>
                <mxCell id="34" value="" style="whiteSpace=wrap;html=1;shape=mxgraph.basic.pointed_oval;strokeColor=none;" parent="1" vertex="1">
                    <mxGeometry x="-286" y="846" width="46" height="88" as="geometry"/>
                </mxCell>
                <mxCell id="35" value="" style="whiteSpace=wrap;html=1;shape=mxgraph.basic.pointed_oval;strokeColor=none;" parent="1" vertex="1">
                    <mxGeometry x="-92" y="846" width="46" height="88" as="geometry"/>
                </mxCell>
                <mxCell id="36" value="" style="whiteSpace=wrap;html=1;shape=mxgraph.basic.pointed_oval;fillColor=#ffe6cc;strokeColor=#d79b00;" parent="1" vertex="1">
                    <mxGeometry x="-189" y="846" width="46" height="88" as="geometry"/>
                </mxCell>
                <mxCell id="37" value="# Records that apprear in both source and sink, &lt;br&gt;# but contain different values. May be stale&lt;br&gt;&lt;font style=&quot;font-size: 16px&quot;&gt;&lt;b&gt;c = a&lt;/b&gt;.&lt;i&gt;join&lt;/i&gt;(&lt;b&gt;b&lt;/b&gt;, &lt;b&gt;a&lt;/b&gt;.id == &lt;b&gt;b&lt;/b&gt;.id, &quot;&lt;i&gt;inner&lt;/i&gt;&quot;)&lt;/font&gt;" style="text;html=1;align=left;verticalAlign=middle;resizable=0;points=[];autosize=1;strokeColor=none;" parent="1" vertex="1">
                    <mxGeometry x="-279" y="995" width="270" height="50" as="geometry"/>
                </mxCell>
                <mxCell id="38" value="" style="curved=1;endArrow=classic;html=1;" parent="1" edge="1">
                    <mxGeometry width="50" height="50" relative="1" as="geometry">
                        <mxPoint x="-169" y="905" as="sourcePoint"/>
                        <mxPoint x="-159" y="985" as="targetPoint"/>
                        <Array as="points">
                            <mxPoint x="-179" y="945"/>
                            <mxPoint x="-129" y="975"/>
                        </Array>
                    </mxGeometry>
                </mxCell>
                <mxCell id="39" value="" style="curved=1;endArrow=classic;html=1;" parent="1" edge="1">
                    <mxGeometry width="50" height="50" relative="1" as="geometry">
                        <mxPoint x="-89" y="855" as="sourcePoint"/>
                        <mxPoint x="-39" y="805" as="targetPoint"/>
                        <Array as="points">
                            <mxPoint x="-49" y="855"/>
                            <mxPoint x="-69" y="815"/>
                        </Array>
                    </mxGeometry>
                </mxCell>
                <mxCell id="40" value="&lt;span style=&quot;font-size: 12px&quot;&gt;# Records that appear only in sink. May be stale&lt;/span&gt;&lt;br&gt;&lt;font style=&quot;font-size: 16px&quot;&gt;&lt;b&gt;d = b&lt;/b&gt;.&lt;i&gt;join&lt;/i&gt;(&lt;b&gt;a, a&lt;/b&gt;.id == &lt;b&gt;b&lt;/b&gt;.id, &quot;left_anti&quot;)&lt;/font&gt;" style="text;html=1;align=left;verticalAlign=middle;resizable=0;points=[];autosize=1;strokeColor=none;fontSize=16;" parent="1" vertex="1">
                    <mxGeometry x="-59" y="755" width="270" height="50" as="geometry"/>
                </mxCell>
                <mxCell id="41" value="&lt;span style=&quot;font-size: 12px&quot;&gt;# Records that appear only in source. May be miss&lt;/span&gt;&lt;br&gt;&lt;font style=&quot;font-size: 16px&quot;&gt;&lt;b&gt;e = a&lt;/b&gt;.&lt;i&gt;join&lt;/i&gt;(&lt;b&gt;b, a&lt;/b&gt;.id&lt;b&gt; == b&lt;/b&gt;.id&lt;b&gt;, &lt;/b&gt;&quot;left_anti&quot;)&lt;/font&gt;" style="text;html=1;align=left;verticalAlign=middle;resizable=0;points=[];autosize=1;strokeColor=none;fontSize=16;" parent="1" vertex="1">
                    <mxGeometry x="-476" y="755" width="290" height="50" as="geometry"/>
                </mxCell>
                <mxCell id="42" value="" style="curved=1;endArrow=classic;html=1;" parent="1" edge="1">
                    <mxGeometry width="50" height="50" relative="1" as="geometry">
                        <mxPoint x="-246" y="855" as="sourcePoint"/>
                        <mxPoint x="-286" y="805" as="targetPoint"/>
                        <Array as="points">
                            <mxPoint x="-266" y="845"/>
                            <mxPoint x="-276" y="835"/>
                            <mxPoint x="-246" y="815"/>
                        </Array>
                    </mxGeometry>
                </mxCell>
                <mxCell id="43" value="" style="endArrow=classic;html=1;fontSize=16;" parent="1" edge="1">
                    <mxGeometry width="50" height="50" relative="1" as="geometry">
                        <mxPoint x="-158" y="400" as="sourcePoint"/>
                        <mxPoint x="-158" y="460" as="targetPoint"/>
                    </mxGeometry>
                </mxCell>
                <mxCell id="44" value="" style="endArrow=classic;html=1;fontSize=16;" parent="1" edge="1">
                    <mxGeometry width="50" height="50" relative="1" as="geometry">
                        <mxPoint x="-158.5" y="673" as="sourcePoint"/>
                        <mxPoint x="-158.5" y="733" as="targetPoint"/>
                    </mxGeometry>
                </mxCell>
                <mxCell id="45" value="" style="ellipse;whiteSpace=wrap;html=1;aspect=fixed;fillColor=#d5e8d4;strokeColor=#82b366;" parent="1" vertex="1">
                    <mxGeometry x="-573" y="950" width="130" height="130" as="geometry"/>
                </mxCell>
                <mxCell id="46" value="" style="whiteSpace=wrap;html=1;shape=mxgraph.basic.pointed_oval;strokeColor=none;" parent="1" vertex="1">
                    <mxGeometry x="-580" y="971" width="46" height="88" as="geometry"/>
                </mxCell>
                <mxCell id="47" value="" style="whiteSpace=wrap;html=1;shape=mxgraph.basic.pointed_oval;strokeColor=none;" parent="1" vertex="1">
                    <mxGeometry x="-482" y="971" width="46" height="88" as="geometry"/>
                </mxCell>
                <mxCell id="48" value="" style="endArrow=none;html=1;fontSize=16;entryX=0.861;entryY=0.162;entryDx=0;entryDy=0;entryPerimeter=0;exitX=0.136;exitY=0.839;exitDx=0;exitDy=0;exitPerimeter=0;" parent="1" edge="1">
                    <mxGeometry width="50" height="50" relative="1" as="geometry">
                        <mxPoint x="-555.3200000000002" y="1059.0700000000002" as="sourcePoint"/>
                        <mxPoint x="-461.07000000000016" y="971.06" as="targetPoint"/>
                    </mxGeometry>
                </mxCell>
                <mxCell id="49" value="" style="endArrow=none;html=1;fontSize=16;entryX=0.138;entryY=0.357;entryDx=0;entryDy=0;entryPerimeter=0;exitX=0.214;exitY=0.907;exitDx=0;exitDy=0;exitPerimeter=0;" parent="1" source="45" target="47" edge="1">
                    <mxGeometry width="50" height="50" relative="1" as="geometry">
                        <mxPoint x="-545.32" y="1069.0700000000002" as="sourcePoint"/>
                        <mxPoint x="-451.07000000000005" y="981.06" as="targetPoint"/>
                    </mxGeometry>
                </mxCell>
                <mxCell id="50" value="" style="endArrow=none;html=1;fontSize=16;entryX=0.119;entryY=0.562;entryDx=0;entryDy=0;entryPerimeter=0;exitX=0.214;exitY=0.907;exitDx=0;exitDy=0;exitPerimeter=0;" parent="1" target="47" edge="1">
                    <mxGeometry width="50" height="50" relative="1" as="geometry">
                        <mxPoint x="-534" y="1074.49" as="sourcePoint"/>
                        <mxPoint x="-464.4719999999999" y="1008.9960000000002" as="targetPoint"/>
                    </mxGeometry>
                </mxCell>
                <mxCell id="51" value="" style="endArrow=none;html=1;fontSize=16;exitX=0.214;exitY=0.907;exitDx=0;exitDy=0;exitPerimeter=0;entryX=0.182;entryY=0.717;entryDx=0;entryDy=0;entryPerimeter=0;" parent="1" target="47" edge="1">
                    <mxGeometry width="50" height="50" relative="1" as="geometry">
                        <mxPoint x="-520" y="1079" as="sourcePoint"/>
                        <mxPoint x="-475" y="1036" as="targetPoint"/>
                    </mxGeometry>
                </mxCell>
                <mxCell id="52" value="" style="endArrow=none;html=1;fontSize=16;exitX=0.214;exitY=0.907;exitDx=0;exitDy=0;exitPerimeter=0;entryX=0.315;entryY=0.866;entryDx=0;entryDy=0;entryPerimeter=0;" parent="1" target="47" edge="1">
                    <mxGeometry width="50" height="50" relative="1" as="geometry">
                        <mxPoint x="-502" y="1080" as="sourcePoint"/>
                        <mxPoint x="-470" y="1050" as="targetPoint"/>
                    </mxGeometry>
                </mxCell>
                <mxCell id="53" value="" style="curved=1;endArrow=classic;html=1;" parent="1" edge="1">
                    <mxGeometry width="50" height="50" relative="1" as="geometry">
                        <mxPoint x="-543" y="971" as="sourcePoint"/>
                        <mxPoint x="-583" y="921" as="targetPoint"/>
                        <Array as="points">
                            <mxPoint x="-563" y="961"/>
                            <mxPoint x="-573" y="951"/>
                            <mxPoint x="-543" y="931"/>
                        </Array>
                    </mxGeometry>
                </mxCell>
                <mxCell id="54" value="&lt;font style=&quot;font-size: 12px&quot;&gt;# Missing records&lt;/font&gt;&lt;br&gt;&lt;b&gt;e&lt;/b&gt;.&lt;i&gt;filter&lt;/i&gt;(&lt;i&gt;col&lt;/i&gt;(&quot;created_at&quot;) - &lt;i&gt;unix_timestamp&lt;/i&gt;(&lt;b&gt;anchor&lt;/b&gt;) &amp;gt; 45 * 60)" style="text;html=1;align=left;verticalAlign=middle;resizable=0;points=[];autosize=1;strokeColor=none;fontSize=16;" parent="1" vertex="1">
                    <mxGeometry x="-830" y="865" width="450" height="50" as="geometry"/>
                </mxCell>
                <mxCell id="55" value="" style="ellipse;whiteSpace=wrap;html=1;aspect=fixed;fillColor=#f8cecc;strokeColor=#b85450;" parent="1" vertex="1">
                    <mxGeometry x="56.28" y="1250" width="130" height="130" as="geometry"/>
                </mxCell>
                <mxCell id="56" value="" style="whiteSpace=wrap;html=1;shape=mxgraph.basic.pointed_oval;strokeColor=none;" parent="1" vertex="1">
                    <mxGeometry x="49.28" y="1271" width="46" height="88" as="geometry"/>
                </mxCell>
                <mxCell id="57" value="" style="whiteSpace=wrap;html=1;shape=mxgraph.basic.pointed_oval;strokeColor=none;" parent="1" vertex="1">
                    <mxGeometry x="147.28" y="1271" width="46" height="88" as="geometry"/>
                </mxCell>
                <mxCell id="58" value="" style="endArrow=none;html=1;fontSize=16;entryX=0.861;entryY=0.162;entryDx=0;entryDy=0;entryPerimeter=0;exitX=0.136;exitY=0.839;exitDx=0;exitDy=0;exitPerimeter=0;" parent="1" edge="1">
                    <mxGeometry width="50" height="50" relative="1" as="geometry">
                        <mxPoint x="73.96000000000004" y="1359.0700000000006" as="sourcePoint"/>
                        <mxPoint x="168.21000000000004" y="1271.06" as="targetPoint"/>
                    </mxGeometry>
                </mxCell>
                <mxCell id="59" value="" style="endArrow=none;html=1;fontSize=16;entryX=0.138;entryY=0.357;entryDx=0;entryDy=0;entryPerimeter=0;exitX=0.214;exitY=0.907;exitDx=0;exitDy=0;exitPerimeter=0;" parent="1" source="55" target="57" edge="1">
                    <mxGeometry width="50" height="50" relative="1" as="geometry">
                        <mxPoint x="83.95999999999995" y="1369.0700000000002" as="sourcePoint"/>
                        <mxPoint x="178.20999999999995" y="1281.06" as="targetPoint"/>
                    </mxGeometry>
                </mxCell>
                <mxCell id="60" value="" style="endArrow=none;html=1;fontSize=16;entryX=0.119;entryY=0.562;entryDx=0;entryDy=0;entryPerimeter=0;exitX=0.214;exitY=0.907;exitDx=0;exitDy=0;exitPerimeter=0;" parent="1" target="57" edge="1">
                    <mxGeometry width="50" height="50" relative="1" as="geometry">
                        <mxPoint x="95.2800000000002" y="1374.4899999999998" as="sourcePoint"/>
                        <mxPoint x="164.80800000000008" y="1308.996" as="targetPoint"/>
                    </mxGeometry>
                </mxCell>
                <mxCell id="61" value="" style="endArrow=none;html=1;fontSize=16;exitX=0.214;exitY=0.907;exitDx=0;exitDy=0;exitPerimeter=0;entryX=0.182;entryY=0.717;entryDx=0;entryDy=0;entryPerimeter=0;" parent="1" target="57" edge="1">
                    <mxGeometry width="50" height="50" relative="1" as="geometry">
                        <mxPoint x="109.2800000000002" y="1379" as="sourcePoint"/>
                        <mxPoint x="154.28" y="1336" as="targetPoint"/>
                    </mxGeometry>
                </mxCell>
                <mxCell id="62" value="" style="endArrow=none;html=1;fontSize=16;exitX=0.214;exitY=0.907;exitDx=0;exitDy=0;exitPerimeter=0;entryX=0.315;entryY=0.866;entryDx=0;entryDy=0;entryPerimeter=0;" parent="1" target="57" edge="1">
                    <mxGeometry width="50" height="50" relative="1" as="geometry">
                        <mxPoint x="127.2800000000002" y="1380" as="sourcePoint"/>
                        <mxPoint x="159.28" y="1350" as="targetPoint"/>
                    </mxGeometry>
                </mxCell>
                <mxCell id="63" value="&lt;font style=&quot;font-size: 12px&quot;&gt;# Records deleted in source were not deleted in sink&lt;/font&gt;&lt;br&gt;&lt;b&gt;d&lt;/b&gt;.&lt;i&gt;filter&lt;/i&gt;(&lt;i&gt;col&lt;/i&gt;(&quot;updated_at&quot;) - &lt;i&gt;unix_timestamp&lt;/i&gt;(&lt;b&gt;anchor&lt;/b&gt;) &amp;gt; 45 * 60)" style="text;html=1;align=left;verticalAlign=middle;resizable=0;points=[];autosize=1;strokeColor=none;fontSize=16;" parent="1" vertex="1">
                    <mxGeometry x="130" y="855" width="450" height="50" as="geometry"/>
                </mxCell>
                <mxCell id="64" value="" style="curved=1;endArrow=classic;html=1;" parent="1" edge="1">
                    <mxGeometry width="50" height="50" relative="1" as="geometry">
                        <mxPoint x="178" y="966" as="sourcePoint"/>
                        <mxPoint x="228" y="916" as="targetPoint"/>
                        <Array as="points">
                            <mxPoint x="188" y="936"/>
                            <mxPoint x="218" y="936"/>
                        </Array>
                    </mxGeometry>
                </mxCell>
                <mxCell id="65" value="" style="endArrow=classic;html=1;fontSize=16;" parent="1" edge="1">
                    <mxGeometry width="50" height="50" relative="1" as="geometry">
                        <mxPoint x="-300" y="941" as="sourcePoint"/>
                        <mxPoint x="-410" y="995" as="targetPoint"/>
                    </mxGeometry>
                </mxCell>
                <mxCell id="66" value="" style="endArrow=classic;html=1;fontSize=16;" parent="1" edge="1">
                    <mxGeometry width="50" height="50" relative="1" as="geometry">
                        <mxPoint x="-14" y="934" as="sourcePoint"/>
                        <mxPoint x="90" y="988" as="targetPoint"/>
                    </mxGeometry>
                </mxCell>
                <mxCell id="67" value="" style="whiteSpace=wrap;html=1;shape=mxgraph.basic.pointed_oval;fillColor=#ffe6cc;strokeColor=#d79b00;" parent="1" vertex="1">
                    <mxGeometry x="50.28" y="1271" width="46" height="88" as="geometry"/>
                </mxCell>
                <mxCell id="68" value="" style="endArrow=classic;html=1;fontSize=16;" parent="1" edge="1">
                    <mxGeometry width="50" height="50" relative="1" as="geometry">
                        <mxPoint x="-158.42000000000007" y="1059" as="sourcePoint"/>
                        <mxPoint x="-158.42000000000007" y="1119" as="targetPoint"/>
                    </mxGeometry>
                </mxCell>
                <mxCell id="69" value="" style="curved=1;endArrow=classic;html=1;fontSize=16;" parent="1" edge="1">
                    <mxGeometry width="50" height="50" relative="1" as="geometry">
                        <mxPoint x="-160" y="1170" as="sourcePoint"/>
                        <mxPoint x="-210" y="1150" as="targetPoint"/>
                        <Array as="points">
                            <mxPoint x="-170" y="1150"/>
                            <mxPoint x="-190" y="1140"/>
                        </Array>
                    </mxGeometry>
                </mxCell>
                <mxCell id="70" value="" style="endArrow=none;html=1;fontSize=16;" parent="1" edge="1">
                    <mxGeometry width="50" height="50" relative="1" as="geometry">
                        <mxPoint x="58.2800000000002" y="1330" as="sourcePoint"/>
                        <mxPoint x="88.2800000000002" y="1300" as="targetPoint"/>
                    </mxGeometry>
                </mxCell>
                <mxCell id="71" value="" style="endArrow=none;html=1;fontSize=16;exitX=0.297;exitY=0.84;exitDx=0;exitDy=0;exitPerimeter=0;entryX=0.834;entryY=0.672;entryDx=0;entryDy=0;entryPerimeter=0;" parent="1" target="67" edge="1">
                    <mxGeometry width="50" height="50" relative="1" as="geometry">
                        <mxPoint x="66.94200000000046" y="1351.92" as="sourcePoint"/>
                        <mxPoint x="93.28" y="1326" as="targetPoint"/>
                    </mxGeometry>
                </mxCell>
                <mxCell id="72" value="" style="endArrow=none;html=1;fontSize=16;exitX=0.297;exitY=0.84;exitDx=0;exitDy=0;exitPerimeter=0;entryX=0.739;entryY=0.814;entryDx=0;entryDy=0;entryPerimeter=0;" parent="1" target="67" edge="1">
                    <mxGeometry width="50" height="50" relative="1" as="geometry">
                        <mxPoint x="70.43200000000024" y="1356.8900000000003" as="sourcePoint"/>
                        <mxPoint x="86.28" y="1342" as="targetPoint"/>
                    </mxGeometry>
                </mxCell>
                <mxCell id="73" value="&lt;font style=&quot;font-size: 12px&quot;&gt;# Records updated in source were not updated in sink&lt;/font&gt;&lt;br&gt;&lt;b&gt;c&lt;/b&gt;.&lt;i&gt;filter&lt;/i&gt;(&lt;i&gt;&lt;b&gt;a&lt;/b&gt;.updated_at&lt;/i&gt;&amp;nbsp;- &lt;b&gt;b&lt;/b&gt;.updated_at&amp;nbsp;&amp;gt; 45 * 60)" style="text;html=1;align=left;verticalAlign=middle;resizable=0;points=[];autosize=1;strokeColor=none;fontSize=16;" parent="1" vertex="1">
                    <mxGeometry x="-540" y="1150" width="340" height="40" as="geometry"/>
                </mxCell>
                <mxCell id="74" value="" style="rounded=0;whiteSpace=wrap;html=1;fontSize=16;align=left;rotation=317;strokeColor=none;" parent="1" vertex="1">
                    <mxGeometry x="70.12" y="1305.59" width="146.59" height="70" as="geometry"/>
                </mxCell>
                <mxCell id="75" value="" style="whiteSpace=wrap;html=1;shape=mxgraph.basic.pointed_oval;rotation=51;strokeColor=none;" parent="1" vertex="1">
                    <mxGeometry x="29.44" y="1306.76" width="49" height="93.59" as="geometry"/>
                </mxCell>
                <mxCell id="76" value="# Stale records&lt;br&gt;&lt;b&gt;c&lt;/b&gt;.union(&lt;b&gt;d&lt;/b&gt;)" style="text;html=1;align=left;verticalAlign=middle;resizable=0;points=[];autosize=1;strokeColor=none;fontSize=16;" parent="1" vertex="1">
                    <mxGeometry x="5" y="1174" width="120" height="40" as="geometry"/>
                </mxCell>
                <mxCell id="77" value="" style="whiteSpace=wrap;html=1;shape=mxgraph.basic.pointed_oval;rotation=5;strokeColor=none;" parent="1" vertex="1">
                    <mxGeometry x="81.44000000000001" y="1298.89" width="10.55" height="40.22" as="geometry"/>
                </mxCell>
                <mxCell id="78" value="" style="rounded=0;whiteSpace=wrap;html=1;rotation=315;strokeColor=none;" parent="1" vertex="1">
                    <mxGeometry x="52.68" y="1315.11" width="42.09" height="4.03" as="geometry"/>
                </mxCell>
                <mxCell id="79" value="" style="rounded=0;whiteSpace=wrap;html=1;rotation=315;strokeColor=none;" parent="1" vertex="1">
                    <mxGeometry x="52.84" y="1320.89" width="40.1" height="11" as="geometry"/>
                </mxCell>
                <mxCell id="80" value="" style="endArrow=classic;html=1;fontSize=16;" parent="1" edge="1">
                    <mxGeometry width="50" height="50" relative="1" as="geometry">
                        <mxPoint x="-130" y="1200" as="sourcePoint"/>
                        <mxPoint x="-10" y="1200" as="targetPoint"/>
                    </mxGeometry>
                </mxCell>
                <mxCell id="81" value="" style="endArrow=classic;html=1;fontSize=16;" parent="1" edge="1">
                    <mxGeometry width="50" height="50" relative="1" as="geometry">
                        <mxPoint x="140" y="1090" as="sourcePoint"/>
                        <mxPoint x="100" y="1160" as="targetPoint"/>
                    </mxGeometry>
                </mxCell>
                <mxCell id="82" value="" style="ellipse;whiteSpace=wrap;html=1;aspect=fixed;strokeColor=#000000;align=left;dashed=1;fillColor=none;" parent="1" vertex="1">
                    <mxGeometry x="28.440000000000055" y="1221" width="166" height="166" as="geometry"/>
                </mxCell>
                <mxCell id="83" value="ALGORITHM 1" style="text;html=1;strokeColor=none;fillColor=none;align=center;verticalAlign=middle;whiteSpace=wrap;rounded=0;dashed=1;fontStyle=1;fontSize=19;" parent="1" vertex="1">
                    <mxGeometry x="-890" y="440" width="170" height="20" as="geometry"/>
                </mxCell>
                <mxCell id="84" value="" style="rounded=1;whiteSpace=wrap;html=1;dashed=1;fillColor=none;" parent="1" vertex="1">
                    <mxGeometry x="102.5" y="851" width="505" height="235" as="geometry"/>
                </mxCell>
                <mxCell id="85" value="False positive" style="text;html=1;strokeColor=none;fillColor=none;align=center;verticalAlign=middle;whiteSpace=wrap;rounded=0;dashed=1;fontStyle=1" parent="1" vertex="1">
                    <mxGeometry x="500" y="826" width="90" height="20" as="geometry"/>
                </mxCell>
            </root>
        </mxGraphModel>
    </diagram>
</mxfile>
